<svg width="117" height="52" viewBox="0 0 117 52" fill="none" xmlns="http://www.w3.org/2000/svg">
<path d="M0.312 40V0.911999H8.824V32.44H23.72V40H0.312ZM40.9404 40.672C38.7751 40.672 36.8338 40.3173 35.1164 39.608C33.4364 38.8987 31.9991 37.872 30.8044 36.528C29.6471 35.184 28.7511 33.56 28.1164 31.656C27.4818 29.752 27.1644 27.624 27.1644 25.272C27.1644 22.92 27.4818 20.792 28.1164 18.888C28.7511 16.984 29.6471 15.3787 30.8044 14.072C31.9991 12.728 33.4364 11.7013 35.1164 10.992C36.8338 10.2827 38.7751 9.928 40.9404 9.928C43.1058 9.928 45.0284 10.2827 46.7084 10.992C48.4258 11.7013 49.8631 12.728 51.0204 14.072C52.2151 15.3787 53.1298 16.984 53.7644 18.888C54.3991 20.792 54.7164 22.92 54.7164 25.272C54.7164 27.624 54.3991 29.752 53.7644 31.656C53.1298 33.56 52.2151 35.184 51.0204 36.528C49.8631 37.872 48.4258 38.8987 46.7084 39.608C45.0284 40.3173 43.1058 40.672 40.9404 40.672ZM40.9404 34.12C42.5831 34.12 43.8524 33.616 44.7484 32.608C45.6444 31.6 46.0924 30.1627 46.0924 28.296V22.304C46.0924 20.4373 45.6444 19 44.7484 17.992C43.8524 16.984 42.5831 16.48 40.9404 16.48C39.2978 16.48 38.0284 16.984 37.1324 17.992C36.2364 19 35.7884 20.4373 35.7884 22.304V28.296C35.7884 30.1627 36.2364 31.6 37.1324 32.608C38.0284 33.616 39.2978 34.12 40.9404 34.12ZM87.8378 42.128C87.8378 43.696 87.5578 45.0773 86.9978 46.272C86.4751 47.4667 85.5978 48.4747 84.3658 49.296C83.1338 50.1547 81.4911 50.7893 79.4378 51.2C77.4218 51.648 74.9205 51.872 71.9338 51.872C69.3951 51.872 67.2298 51.704 65.4378 51.368C63.6831 51.0693 62.2458 50.6213 61.1258 50.024C60.0431 49.464 59.2405 48.7547 58.7178 47.896C58.2325 47.0747 57.9898 46.1227 57.9898 45.04C57.9898 43.3973 58.4751 42.1093 59.4458 41.176C60.4165 40.2427 61.7605 39.664 63.4778 39.44V38.824C62.0591 38.5627 60.9951 37.9653 60.2858 37.032C59.5765 36.0613 59.2218 34.9413 59.2218 33.672C59.2218 32.888 59.3711 32.216 59.6698 31.656C60.0058 31.0587 60.4165 30.5547 60.9018 30.144C61.4245 29.696 62.0218 29.3413 62.6938 29.08C63.3658 28.8187 64.0378 28.6133 64.7098 28.464V28.24C62.9178 27.4187 61.5925 26.2987 60.7338 24.88C59.8751 23.424 59.4458 21.744 59.4458 19.84C59.4458 16.8533 60.4725 14.464 62.5258 12.672C64.6165 10.8427 67.7898 9.928 72.0458 9.928C73.9871 9.928 75.6485 10.1147 77.0298 10.488V9.368C77.0298 7.8 77.4031 6.68 78.1498 6.008C78.9338 5.29866 80.0351 4.944 81.4538 4.944H86.1018V11.104H79.6058V11.44C81.3231 12.2613 82.5925 13.4 83.4138 14.856C84.2351 16.2747 84.6458 17.936 84.6458 19.84C84.6458 22.7893 83.6005 25.16 81.5098 26.952C79.4565 28.7067 76.3018 29.584 72.0458 29.584C70.1418 29.584 68.4058 29.3787 66.8378 28.968C65.9791 29.528 65.5498 30.312 65.5498 31.32C65.5498 32.0293 65.8111 32.5893 66.3338 33C66.8938 33.3733 67.8085 33.56 69.0778 33.56H77.5898C81.1738 33.56 83.7685 34.3067 85.3738 35.8C87.0165 37.2933 87.8378 39.4027 87.8378 42.128ZM80.0538 43.248C80.0538 42.3893 79.7178 41.736 79.0458 41.288C78.3738 40.84 77.1978 40.616 75.5178 40.616H65.4378C65.0645 40.9893 64.7845 41.4 64.5978 41.848C64.4485 42.3333 64.3738 42.8 64.3738 43.248C64.3738 44.3307 64.8405 45.1147 65.7738 45.6C66.7071 46.1227 68.2938 46.384 70.5338 46.384H73.8938C76.1338 46.384 77.7205 46.1227 78.6538 45.6C79.5871 45.1147 80.0538 44.3307 80.0538 43.248ZM72.0458 24.152C73.6885 24.152 74.9018 23.816 75.6858 23.144C76.5071 22.4347 76.9178 21.4267 76.9178 20.12V19.448C76.9178 18.1413 76.5071 17.152 75.6858 16.48C74.9018 15.7707 73.6885 15.416 72.0458 15.416C70.4031 15.416 69.1711 15.7707 68.3498 16.48C67.5658 17.152 67.1738 18.1413 67.1738 19.448V20.12C67.1738 21.4267 67.5658 22.4347 68.3498 23.144C69.1711 23.816 70.4031 24.152 72.0458 24.152ZM103.12 40.672C100.955 40.672 99.0135 40.3173 97.2961 39.608C95.6161 38.8987 94.1788 37.872 92.9841 36.528C91.8268 35.184 90.9308 33.56 90.2961 31.656C89.6615 29.752 89.3441 27.624 89.3441 25.272C89.3441 22.92 89.6615 20.792 90.2961 18.888C90.9308 16.984 91.8268 15.3787 92.9841 14.072C94.1788 12.728 95.6161 11.7013 97.2961 10.992C99.0135 10.2827 100.955 9.928 103.12 9.928C105.285 9.928 107.208 10.2827 108.888 10.992C110.605 11.7013 112.043 12.728 113.2 14.072C114.395 15.3787 115.309 16.984 115.944 18.888C116.579 20.792 116.896 22.92 116.896 25.272C116.896 27.624 116.579 29.752 115.944 31.656C115.309 33.56 114.395 35.184 113.2 36.528C112.043 37.872 110.605 38.8987 108.888 39.608C107.208 40.3173 105.285 40.672 103.12 40.672ZM103.12 34.12C104.763 34.12 106.032 33.616 106.928 32.608C107.824 31.6 108.272 30.1627 108.272 28.296V22.304C108.272 20.4373 107.824 19 106.928 17.992C106.032 16.984 104.763 16.48 103.12 16.48C101.477 16.48 100.208 16.984 99.3121 17.992C98.4161 19 97.9681 20.4373 97.9681 22.304V28.296C97.9681 30.1627 98.4161 31.6 99.3121 32.608C100.208 33.616 101.477 34.12 103.12 34.12Z" fill="white"/>
</svg>
