<svg width="128" height="275" viewBox="0 0 128 275" fill="none" xmlns="http://www.w3.org/2000/svg">
<g opacity="0.05">
<path d="M52.0534 259.685H36.9689V274.77H52.0534V259.685Z" fill="white"/>
<path d="M108.25 205.103H93.1655V220.188H108.25V205.103Z" fill="white"/>
<path d="M127.878 129.853H103.746V144.938H127.878V129.853Z" fill="white"/>
<path d="M92.055 54.3938H107.139V69.4778L92.055 69.4832V54.3938Z" fill="white"/>
<path d="M51.58 0H36.4955V15.084H51.58V0Z" fill="white"/>
<path d="M69.4127 217.177H48.261V238.329H69.4127V217.177Z" fill="white"/>
<path d="M106.014 160.947H80.3418V182.098H106.014V160.947Z" fill="white"/>
<path d="M106.014 93.7699H80.3418V114.921H106.014V93.7699Z" fill="white"/>
<path d="M15 249H1V275H15V249Z" fill="white"/>
<path d="M15 0H1V26H15V0Z" fill="white"/>
<path d="M61.3315 104.931H1.07902L1.07356 44.6782H27.2621V78.7413H61.3315V104.931Z" fill="white"/>
<path d="M69.4127 36.6133H48.261V57.7645H69.4127V36.6133Z" fill="white"/>
<path d="M74.1163 124.301H31.1086V150.489H74.1163V124.301Z" fill="white"/>
<path d="M0.755859 230.749V170.485H61.0197V196.673H26.9444V230.748L0.755859 230.749Z" fill="white"/>
</g>
</svg>
